<svg xmlns="http://www.w3.org/2000/svg" viewBox="0 0 1945 815" width="1945" height="815" font-family="Segoe UI, Arial, sans-serif">
<defs><marker id="arw" viewBox="0 0 12 12" refX="10" refY="6" markerWidth="9" markerHeight="9" orient="auto-start-reverse"><path d="M0 1 L11 6 L0 11 z" fill="#12263f"/></marker></defs>
<rect width="1945" height="815" fill="#ffffff"/>
<g transform="translate(637.0,620)">
<line x1="-356.6" y1="-106.5" x2="-145.0" y2="-43.3" stroke="#12263f" stroke-width="1.8"/>
<line x1="-322.0" y1="-206.3" x2="-85.9" y2="-55.0" stroke="#12263f" stroke-width="1.8"/>
<line x1="-232.9" y1="-315.9" x2="-40.6" y2="-55.0" stroke="#12263f" stroke-width="1.8"/>
<line x1="-71.7" y1="-393.1" x2="-10.0" y2="-55.0" stroke="#12263f" stroke-width="1.8"/>
<line x1="127.6" y1="-377.3" x2="18.6" y2="-55.0" stroke="#12263f" stroke-width="1.8"/>
<line x1="269.9" y1="-282.4" x2="52.6" y2="-55.0" stroke="#12263f" stroke-width="1.8"/>
<line x1="645.9" y1="-289.0" x2="859.7" y2="-55.0" stroke="#12263f" stroke-width="1.8"/>
<line x1="764.4" y1="-370.8" x2="888.4" y2="-55.0" stroke="#12263f" stroke-width="1.8"/>
<line x1="920.9" y1="-400.0" x2="911.5" y2="-55.0" stroke="#12263f" stroke-width="1.8"/>
<line x1="1075.2" y1="-361.1" x2="935.2" y2="-55.0" stroke="#12263f" stroke-width="1.8"/>
<ellipse cx="-422" cy="-126" rx="75.0" ry="40" fill="#ffffff" stroke="#12263f" stroke-width="2.4"/>
<text x="-422.0" y="-120.0" font-family="Segoe UI, Arial, sans-serif" font-size="17" font-weight="700" fill="#12263f" text-anchor="middle" text-decoration="underline">id_modo</text>
<ellipse cx="-370" cy="-237" rx="75.0" ry="40" fill="#ffffff" stroke="#12263f" stroke-width="2.4"/>
<text x="-370.0" y="-231.0" font-family="Segoe UI, Arial, sans-serif" font-size="17" font-weight="400" fill="#12263f" text-anchor="middle">codigo</text>
<ellipse cx="-261" cy="-354" rx="92.8" ry="40" fill="#ffffff" stroke="#12263f" stroke-width="2.4"/>
<text x="-261.0" y="-348.0" font-family="Segoe UI, Arial, sans-serif" font-size="17" font-weight="400" fill="#12263f" text-anchor="middle">tamano_tablero</text>
<ellipse cx="-79" cy="-433" rx="88.6" ry="40" fill="#ffffff" stroke="#12263f" stroke-width="2.4"/>
<text x="-79.0" y="-427.0" font-family="Segoe UI, Arial, sans-serif" font-size="17" font-weight="400" fill="#12263f" text-anchor="middle">num_jugadores</text>
<ellipse cx="141" cy="-417" rx="105.4" ry="40" fill="#ffffff" stroke="#12263f" stroke-width="2.4"/>
<text x="141.0" y="-411.0" font-family="Segoe UI, Arial, sans-serif" font-size="17" font-weight="400" fill="#12263f" text-anchor="middle">muros_por_jugador</text>
<ellipse cx="304" cy="-318" rx="75.0" ry="40" fill="#ffffff" stroke="#12263f" stroke-width="2.4"/>
<text x="304.0" y="-312.0" font-family="Segoe UI, Arial, sans-serif" font-size="17" font-weight="400" fill="#12263f" text-anchor="middle">activo</text>
<ellipse cx="613" cy="-325" rx="76.0" ry="40" fill="#ffffff" stroke="#12263f" stroke-width="2.4"/>
<text x="613.0" y="-319.0" font-family="Segoe UI, Arial, sans-serif" font-size="17" font-weight="700" fill="#12263f" text-anchor="middle" text-decoration="underline">id_palabra</text>
<ellipse cx="749" cy="-410" rx="75.0" ry="40" fill="#ffffff" stroke="#12263f" stroke-width="2.4"/>
<text x="749.0" y="-404.0" font-family="Segoe UI, Arial, sans-serif" font-size="17" font-weight="400" fill="#12263f" text-anchor="middle">termino</text>
<ellipse cx="922" cy="-440" rx="75.0" ry="40" fill="#ffffff" stroke="#12263f" stroke-width="2.4"/>
<text x="922.0" y="-434.0" font-family="Segoe UI, Arial, sans-serif" font-size="17" font-weight="400" fill="#12263f" text-anchor="middle">idioma</text>
<ellipse cx="1093" cy="-400" rx="75.0" ry="40" fill="#ffffff" stroke="#12263f" stroke-width="2.4"/>
<text x="1093.0" y="-394.0" font-family="Segoe UI, Arial, sans-serif" font-size="17" font-weight="400" fill="#12263f" text-anchor="middle">ambito</text>
<rect x="-145.0" y="-55.0" width="290" height="110" fill="#ffffff" stroke="#12263f" stroke-width="3"/>
<text x="0.0" y="9.0" font-family="Segoe UI, Arial, sans-serif" font-size="27" font-weight="700" fill="#12263f" text-anchor="middle">Modo</text>
<rect x="755.5" y="-55.0" width="309" height="110" fill="#ffffff" stroke="#12263f" stroke-width="3"/>
<text x="910.0" y="9.0" font-family="Segoe UI, Arial, sans-serif" font-size="27" font-weight="700" fill="#12263f" text-anchor="middle">PalabraProhibida</text>
</g>
</svg>